<?xml version="1.0" encoding="UTF-8"?>
<svg id="Layer_1" xmlns="http://www.w3.org/2000/svg" xmlns:xlink="http://www.w3.org/1999/xlink" version="1.1" viewBox="0 0 146 40">
  <!-- Generator: Adobe Illustrator 30.2.1, SVG Export Plug-In . SVG Version: 2.1.1 Build 1)  -->
  <defs>
    <style>
      .st0 {
        fill: url(#radial-gradient);
      }

      .st1 {
        fill: #fff;
        opacity: .58;
      }
    </style>
    <radialGradient id="radial-gradient" cx="62.07" cy="20" fx="62.07" fy="20" r="40.92" gradientTransform="translate(-1.44) scale(1.21 1)" gradientUnits="userSpaceOnUse">
      <stop offset=".36" stop-color="#eed8b4"/>
      <stop offset=".61" stop-color="#e9d0a7"/>
      <stop offset="1" stop-color="#e0bf8d"/>
    </radialGradient>
  </defs>
  <polygon class="st0" points="7.95 37.09 6.74 2.91 140.1 3.37 136.93 35.88 7.95 37.09"/>
  <path class="st1" d="M136.69,11.6c.08-.58.34-1.13.73-1.52.28.59.41,1.27.38,1.95.79-.1,1.2-1.15,1.44-2.04.1.67.31,1.32.6,1.91.28-.59.56-1.18.84-1.77.24.54.49,1.09.73,1.63.28-.58.55-1.17.83-1.75.25.54.5,1.09.75,1.63.17-.58.33-1.16.5-1.74.3,3.96.08,7.96-.14,11.95-.18,3.21-.36,6.42-.54,9.63-.28-.46-.55-.91-.83-1.37-.41.29-.83.58-1.24.87.24-.4-.2-.95-.62-.88-.42.07-.73.48-.99.86-.11-.48-.38-.89-.74-1.16-.25.37-.57.68-.92.91-.12-.36-.24-.71-.35-1.07-.3.42-.59.83-.89,1.25-.25-.39-.49-.79-.74-1.18-.33.24-.59.61-.73,1.03.4-2.8.45-5.64.5-8.46.07-4.03.15-8.06.22-12.1.4.47.81.95,1.21,1.42Z"/>
  <path class="st1" d="M3.44,11.6c.08-.58.34-1.13.73-1.52.28.59.41,1.27.38,1.95.79-.1,1.2-1.15,1.44-2.04.1.67.31,1.32.6,1.91.28-.59.56-1.18.84-1.77.24.54.49,1.09.73,1.63.28-.58.55-1.17.83-1.75.25.54.5,1.09.75,1.63.17-.58.33-1.16.5-1.74.3,3.96.08,7.96-.14,11.95-.18,3.21-.36,6.42-.54,9.63-.28-.46-.55-.91-.83-1.37-.41.29-.83.58-1.24.87.24-.4-.2-.95-.62-.88-.42.07-.73.48-.99.86-.11-.48-.38-.89-.74-1.16-.25.37-.57.68-.92.91-.12-.36-.24-.71-.35-1.07-.3.42-.59.83-.89,1.25-.25-.39-.49-.79-.74-1.18-.33.24-.59.61-.73,1.03.4-2.8.45-5.64.5-8.46.07-4.03.15-8.06.22-12.1.4.47.81.95,1.21,1.42Z"/>
</svg>