<?xml version="1.0" encoding="UTF-8"?>
<svg id="Layer_1" xmlns="http://www.w3.org/2000/svg" version="1.1" viewBox="0 0 1236.38 343.65">
  <!-- Generator: Adobe Illustrator 30.2.1, SVG Export Plug-In . SVG Version: 2.1.1 Build 1)  -->
  <defs>
    <style>
      .st0 {
        fill: #231f20;
      }
    </style>
  </defs>
  <path class="st0" d="M887.7,293.31c-1.34.51-22.08,13.22-47.35,24.85-25.28,11.62-37.43,17.92-37.86,19.62s38.29-7.47,53.11-13.76,18.24-8.21,21.44-11.52,13.14-20.15,10.66-19.2Z"/>
  <path class="st0" d="M104.92,85.68c14.82-6.29,18.24-8.21,21.44-11.52s13.14-20.15,10.66-19.2c-1.34.51-22.08,13.22-47.35,24.85-25.28,11.62-37.43,17.92-37.86,19.62s38.29-7.47,53.11-13.76Z"/>
  <path class="st0" d="M461.77,155.47c14.82-6.29,18.24-8.21,21.44-11.52s13.14-20.15,10.66-19.2c-1.34.51-22.08,13.22-47.35,24.85-25.28,11.62-37.43,17.92-37.86,19.62s38.29-7.47,53.11-13.76Z"/>
  <path class="st0" d="M1044.4,95.81c8.29-6.27,15.58-14.4,19.33-22.69,1.85.46,3.33.72,4.58.96,3.07.58,7.24,1.18,7.24,1.18.88-.5,4.53-9.26,4.03-9.93-.67-.89-7.21-1.26-13.19-2.53.83-12.45-2.58-20.22-5.54-21.32-3.03-1.12-9.83-.48-15.16,10.84-5.04,10.69-1.08,13.64,6.98,17.01,3,1.26,5.46,2.14,7.55,2.8-4.41,7.96-38.81,34.92-38.3,36.38.26.73,7.3-1.23,22.47-12.71ZM1049.35,54.93c-.15-1.52,5.77-5.75,8.92-2.79,1.75,1.65,3.02,5.29,3.4,9.38-6.88-2.2-12.14-4.79-12.31-6.59Z"/>
  <path class="st0" d="M691.81,78.43c8.29-6.27,15.58-14.4,19.33-22.69,1.85.46,3.33.72,4.58.96,3.07.58,7.24,1.18,7.24,1.18.88-.5,4.53-9.26,4.03-9.93-.67-.89-7.21-1.26-13.19-2.53.83-12.45-2.58-20.22-5.54-21.32-3.03-1.12-9.83-.48-15.16,10.84-5.04,10.69-1.08,13.64,6.98,17.01,3,1.26,5.46,2.14,7.55,2.8-4.41,7.96-38.81,34.92-38.3,36.38.26.73,7.3-1.23,22.47-12.71ZM696.76,37.56c-.15-1.52,5.77-5.75,8.92-2.79,1.75,1.65,3.02,5.29,3.4,9.38-6.88-2.2-12.14-4.79-12.31-6.59Z"/>
  <path class="st0" d="M579.83,121.43c2.65.2,4.82-6.11,9.58-6.05,3.74.05,15.97,2.58,15.97,2.58,0,0-3.8,5.91-4.82,7.95-1.02,2.04,1.43,2.38,1.43,2.38,8.49-1.09,14.33-5.09,16.71-8.76s10.46-21.4,8.9-22.28c-1.56-.88-9.99,1.43-16.64.88-6.66-.54-14.4-4.01-19.7-1.77-5.3,2.24-6.86,9.24-9.58,14.67-2.72,5.43-3.55,10.26-1.83,10.39Z"/>
  <path class="st0" d="M168.22,131.21c-1.53,1.04-11.22,19.56-9.02,18.34,3.57-1.97,9.78-5.49,28.64-14.97,23.71-11.91,88.11-40.89,133.26-58.87,3.28-6.13,6.66-12.2,10.14-18.21-5.53,2.16-11.09,4.26-16.66,6.56-100.3,41.37-142.03,64.2-146.36,67.15Z"/>
  <path class="st0" d="M700.95,115.31c-.67-.46-1.58-.3-2.05.36l-10.3,14.5c-.47.67-.32,1.59.35,2.07l14.52,10.23c.67.48,1.6.32,2.08-.36l10.34-14.52c.47-.68.3-1.6-.37-2.07l-14.55-10.21Z"/>
  <path class="st0" d="M1186.82,283.05c-.67-.46-1.58-.3-2.05.36l-10.3,14.5c-.47.67-.32,1.59.35,2.07l14.52,10.23c.67.48,1.6.32,2.08-.36l10.34-14.52c.47-.67.3-1.6-.37-2.07l-14.55-10.21Z"/>
  <path class="st0" d="M800.53,61.02c7.25.37,14.06-3.81,14.95-5.98.9-2.17-.22,1.35,3.66,1.27,3.89-.07,9.72-1.27,10.99-3.36,1.27-2.09,2.39-8.3,2.39-13.16s-.45-7.55-1.79-8.67l-3.29,9.27s1.27,3.14,1.27,3.96-5.53,1.79-7.7,1.2-3.07-2.02-3.36-6.58c-.3-4.56-.37-5.91-1.79-4.04-1.42,1.87-2.02,7.48-2.32,9.42-.3,1.94.6,3.74-5.68,5.91-6.28,2.17-10.47-.07-10.99-3.81-.52-3.74,1.42-6.58,1.79-8.07s-3.59-.45-5.16,7.55-.22,14.73,7.03,15.1Z"/>
  <path class="st0" d="M1203,184.49l-2.68,20.53c11.11,6.52,18.47,23.11,18.47,23.11-2.66,1.64-18.89,7.56-36.18,9.76-18.67,2.38-26.49-.99-28.35-7.49-.7-2.44-.02-6.02.37-8.9,9.96.28,14.22,1.28,14.91.81,1.06-.75,13.14-23.38,12.8-27.71-1.19-13.75-19.42-27.1-27.75-31.16-8.33-4.03-22.39-2.32-81.91,5.56-59.48,7.88-94.75,12.73-144.99,10.65-37.54-1.54-43.96-14.27-43.96-14.27,31.57-32.01,96.41-54.6,96.41-54.6l11.3-20.07c-46.21,13.79-82.18,38.97-97.67,54.88-15.49,15.94-21.77,33-20.78,35.83,1.02,2.87,11.67,16.83,57.16,17.64,69.82,1.26,83.73-5.56,133.93-10.96,45.73-4.91,73.65-10.48,85.29-5.25,11.64,5.22,21.02,19.62,21.02,19.62,0,0-21.65-2.82-71.58,4.34-54.78,7.89-139.06,25.04-211.41,18.05-24.29-2.34-36.43-11.66-44.75-23.48-6.62-9.4-10.74-23.92-15.14-52.95-6.16-40.7-9.64-69.38-10.2-69.32-.56.06-7.03,20.85-6.72,23.02.31,2.18,5.85,37.77,12.76,84.26,6.91,46.48,9.24,73.37,9.24,73.37,0,0-15.37,15.96-40.07,16.61-26.31.7-36.11-13.63-37.01-28.38-.66-10.82,8.07-25.68,8.28-28.73,16.2-.28,30.62,2.9,30.62,2.9l8.08-20.64s-27.54,1.67-44.26-2.87c-17.21-4.68-22.04-6.94-37.14-15.22-17.06-9.35-31.74-13.13-39.95-7.16-5.12,3.73-12.92,19.38-11.96,19.7s9.32-2.59,19.14-1.17c20.1,2.91,47.26,14.15,47.26,14.15-19.99,6.84-76.55,24.13-139.3,26.94.27-.13.58-.24.84-.37,9.18-5.39,17.99-34.33,16.38-38.73-1.6-4.37-17.95-13-25.53-12.87-9.79.14-18.19,6.59-28.63,14.47-5.57,4.2-15.78,12.28-26.3,20.02,3.28-13.53,6.28-31.43,4.1-48.42-3.39-26.4-8.59-62.8-8.59-62.8.53-.64,6.76-15.09,6.61-17.01-.16-1.92-6.89-5.84-10.06-11.45-3.17-5.64-3.81-12.62-4.55-11.65-.85,1.14-9.21,13.15-8.54,20.41.67,7.29,3.98,11.54,4.84,13.98,2.43,12.72,9.33,53.39,11.74,88.61.83,12.07-.27,23.29-1.99,32.99-5.32,3.78-10.5,7.26-14.95,9.88-5.49.25-10.97.4-16.25.46-1.23-7.75-9.83-32.71-24.33-32.71-9.88,0-19.83,13.61-21.25,26.44-1.2,10.82,1.85,24.56,16.54,25.38,5.21.29,10.29.03,18.96-.21-4.52,8.05-14.1,23.23-27.86,34.8-19.62,16.55-39.46,15.72-51.82,11.73-11.73-3.79-17.54-10.64-18.38-10.04-.7.51-.42,4.46,13.86,14.09,14.45,9.75,30.15,11.35,45.4,10.09,14.78-1.22,28.08-21.4,36.86-38.29,5.23-10.06,8.11-17.79,9.65-22.63,10.29-.37,22.69-1.03,35.54-2.19,58.41,11.53,108.85,3.02,145.04-5.34,27.55-6.36,52.18-17.3,68.69-22.32,6.38-1.94,13.42-2.75,20.22-2.94-3.11,2.89-10.96,15.62-13.17,30.12-2.43,15.89-1.15,43.55,29.72,46.81,27.73,2.92,51.59-12.32,54.74-19.68,6.78-15.86,4.26-46.15,3.12-56.65,5.72,9.44,13.24,16.98,29.14,20.88,26.4,6.47,71.86,5.28,107.87,1.65,67.53-6.81,125.06-17.75,157-20.24,8.12-.62,14.67-.8,19.96-.77-1.74,6.16-2.42,17.22.74,25.43,4.41,11.44,13.78,12.93,28.45,11.01,20.4-2.68,33.25-7.61,37.1-10.28,2.14-1.49,5.16-9.84,6.03-15.89,4.05-28.17-19.43-48.35-20.23-47.22ZM466.21,232.2c-4.67-.65-7.96-1.54-9.15-2.74-.23-.44-.44-1.29-.19-1.84,1.6-3.52,6.28-6.14,7.47-6.14s4.88,3.07,4.88,3.07l-3.01,7.66ZM580.18,202.91c7.17.65,19.35,7.2,23.17,12.42,0,0-26.14,12.78-77.02,16.76,8.47-4.91,20.48-12.83,27.4-17.71,15.22-10.78,19.69-12.12,26.45-11.47Z"/>
  <path class="st0" d="M352.57,154.04l8.48-11.67c1.7-1.05,8.7-5.65,9.95-5.8l12.73,9.33c.72.53,1.73.38,2.25-.35l11.32-15.58c.52-.72.36-1.73-.36-2.25l-15.55-11.05c-.71-.51-1.71-.36-2.23.35l-10.74,14.55c-2.67,2.23-6.67,2.95-7.7,2.65l-12.75-9.05c-.71-.51-1.71-.36-2.23.35l-11.26,15.26c-.53.71-.38,1.72.34,2.24l15.5,11.36c.72.53,1.73.38,2.25-.35Z"/>
  <path class="st0" d="M394.8,237.9c5.39-8.94,6.04-33.34,4.54-35.9-1.5-2.56-7.19-5.69-15.02-8.6-6.72-2.5-12.12-6.86-15.05-6.31-1.57.27-3.87,2.65-8.68,12.02-4.25,8.27-9.68,27.88-9.68,35.56s5.84,14.27,14.5,14.71c8.67.41,23.96-2.49,29.38-11.47ZM381.08,226.6c-11.81,2.7-21.19-.07-21.91-3.55-.72-3.48,6.62-13.63,10.03-13.49,1.26.07,13.86,7.45,23.65,11.07,0,0,0,3.28-11.77,5.97Z"/>
  <path class="st0" d="M21,174.69c7.01.94,26,5.28,27.45,4.92.89-.22,1.21-4.11,1.21-4.11,0,0,14.35,9.33,24,27.1,9.55,17.61,12.1,41.73,13.24,33.83.94-6.49-1.83-42.66-22.61-70.21-14.88-19.72-38.57-29.01-45.02-26.27-2.5,1.06-5.27,33.81,1.74,34.75Z"/>
  <path class="st0" d="M252.6,169.65c-7.59,11.24-9,18.35-7.35,17.53,1.64-.85,7.38-2.66,7.38-2.66-5.92,7.59-12.9,20.31-13.1,30.36-.14,7.31,1.68,9.24,7.62,11.7-26.09,11.17-59.65,16.95-75.62,16.72-14.47-.2-25.94-3.67-34.38-11.43-12.04-11.07-14.14-41.22-18.52-68.1-2.65-16.27-7.99-47.04-9.69-48.46-1.71-1.42-5.76,10.1-5.4,27.44.99,48.71-2.76,85.2-25.68,107.22-27.21,26.14-59.32,35.13-64.9,39.35-3.95,2.99,36.59-6.06,59.83-15.21,18.77-7.4,27.18-30.86,31.51-49.16,4.32-18.28,4.92-57.45,5.41-57.59.5-.14,5.16,37.97,7.87,52.29,3.94,20.84,9.68,32.27,25.61,38.86,13.6,5.63,28.77,5.77,45.78,3.03,25.02-4.03,52.75-13.76,75.31-28.42,15.86,5.03,33.65,15.93,36.38,15.08,2.95-.91,6.53-8.91,8.11-16.89,2.33-11.84-3.49-25.2-18.05-44.48-18.1-23.96-30.52-28.44-38.11-17.19ZM247.44,205.51c1.46-5.62,11.43-14.85,16.23-14.53,7.11.47,12.5,12.45,12.96,16.05-2.78,3.38-6.43,6.53-10.67,9.46-11.04-3.48-19.62-6.71-18.51-10.98ZM279.22,221.99c3.35-7.76,4-16.1,3.19-23.5,14.2,14.24,20.59,27.15,21.95,34.57,0,0-14.21-6.62-25.14-11.07Z"/>
</svg>